<?xml version="1.0" encoding="utf-8"?>
<!-- Generator: Adobe Illustrator 19.0.0, SVG Export Plug-In . SVG Version: 6.00 Build 0)  -->
<svg version="1.1" id="Layer_1" xmlns="http://www.w3.org/2000/svg" xmlns:xlink="http://www.w3.org/1999/xlink" x="0px" y="0px"
	 viewBox="53 -53 256 256" style="enable-background:new 53 -53 256 256;" xml:space="preserve">
<style type="text/css">
	.st0{fill:#00BBBB;}
</style>
<g>
	<path class="st0" d="M181-53C110.3-53,53,4.3,53,75s57.3,128,128,128s128-57.3,128-128S251.7-53,181-53z M80.5,76.3l99.2,99.2
		C125.2,174.8,81.2,130.8,80.5,76.3z M203.5,173L83,52.5c10.2-44.7,50.2-78,98-78c33.4,0,63,16.3,81.3,41.4l-13.9,12.3
		C233.5,6.9,208.9-7.1,181-7.1c-35.5,0-65.7,22.6-77.2,54.1l105.1,105.1c25.5-9.2,45.2-30.8,51.7-57.5H217V75h45.9l0,0h18.5l0,0
		C281.5,122.8,248.2,162.8,203.5,173z"/>
</g>
</svg>
