<?xml version="1.0" encoding="utf-8"?>
<!-- Generator: Adobe Illustrator 19.0.0, SVG Export Plug-In . SVG Version: 6.00 Build 0)  -->
<svg version="1.1" id="Layer_1" xmlns="http://www.w3.org/2000/svg" xmlns:xlink="http://www.w3.org/1999/xlink" x="0px" y="0px"
	 viewBox="-177 269 256 256" style="enable-background:new -177 269 256 256;" xml:space="preserve">
<style type="text/css">
	.st0{fill:#FFFFFF;}
</style>
<g>
	<path class="st0" d="M-49,269c-70.7,0-128,57.3-128,128c0,70.7,57.3,128,128,128c70.7,0,128-57.3,128-128S21.7,269-49,269z
		 M-149.5,398.3l99.2,99.2C-104.8,496.8-148.8,452.8-149.5,398.3z M-26.5,495L-147,374.5c10.2-44.7,50.2-78,98-78
		c33.4,0,63,16.3,81.3,41.4l-13.9,12.3C3.5,328.9-21.1,314.9-49,314.9c-35.5,0-65.7,22.6-77.2,54.1l105.1,105.1
		c25.5-9.2,45.2-30.8,51.7-57.5h-43.6V397h45.9v0h18.5v0C51.5,444.8,18.2,484.8-26.5,495z"/>
</g>
</svg>
