<?xml version="1.0" encoding="utf-8"?>
<!-- Generator: Adobe Illustrator 19.0.0, SVG Export Plug-In . SVG Version: 6.00 Build 0)  -->
<svg version="1.1" id="Layer_1" xmlns="http://www.w3.org/2000/svg" xmlns:xlink="http://www.w3.org/1999/xlink" x="0px" y="0px"
	 viewBox="0 0 150 150" style="enable-background:new 0 0 150 150;" xml:space="preserve">
<style type="text/css">
	.st0{fill:#02BBBA;}
	.st1{fill:#FFFFFF;}
</style>
<path id="XMLID_17_" class="st0" d="M130,0H20C9,0,0,9,0,20v110c0,11,9,20,20,20h110c11,0,20-9,20-20V20C150,9,141,0,130,0z"/>
<g id="XMLID_2_">
	<path id="XMLID_16_" class="st1" d="M127.2,126.7h-0.6c-5.4,7.8-13.4,11.7-24.2,11.7c-10.1,0-17.9-3.4-23.5-10.3
		c-5.6-6.9-8.4-16.7-8.4-29.4c0-12.7,2.8-22.6,8.4-29.6c5.6-7,13.4-10.5,23.5-10.5c10.4,0,18.5,3.8,24,11.4h0.9l-0.5-5.6l-0.3-5.4
		V27.7h11.7V137h-9.5L127.2,126.7z M103.9,128.6c8,0,13.7-2.2,17.3-6.5c3.6-4.3,5.4-11.3,5.4-21v-2.5c0-10.9-1.8-18.7-5.4-23.4
		c-3.6-4.7-9.4-7-17.4-7c-6.8,0-12.1,2.7-15.7,8c-3.6,5.3-5.4,12.8-5.4,22.5c0,9.8,1.8,17.3,5.4,22.3
		C91.6,126.1,96.9,128.6,103.9,128.6z"/>
</g>
</svg>
