<?xml version="1.0" encoding="utf-8"?>
<!-- Generator: Adobe Illustrator 19.0.0, SVG Export Plug-In . SVG Version: 6.00 Build 0)  -->
<svg version="1.1" id="Layer_1" xmlns="http://www.w3.org/2000/svg" xmlns:xlink="http://www.w3.org/1999/xlink" x="0px" y="0px"
	 viewBox="944 -854 2500 2500" style="enable-background:new 944 -854 2500 2500;" xml:space="preserve">
<style type="text/css">
	.st0{fill:#FFFFFF;}
</style>
<path class="st0" d="M2194,1646c690.4,0,1250-559.6,1250-1250S2884.4-854,2194-854S944-294.4,944,396S1503.6,1646,2194,1646z
	 M2194,1458.5c-586.8,0-1062.5-475.7-1062.5-1062.5S1607.2-666.5,2194-666.5S3256.5-190.8,3256.5,396S2780.8,1458.5,2194,1458.5z"/>
<path class="st0" d="M2194-604c-552.3,0-1000,447.7-1000,1000s447.7,1000,1000,1000S3194,948.3,3194,396S2746.3-604,2194-604z
	 M2256.5,458.5h-562.8c-33.7,0-62.2-28-62.2-62.5c0-0.1,0-0.2,0-0.3c0-34.4,27.9-62.2,62.3-62.2h437.7v-812.1
	c0-34.8,28-62.9,62.5-62.9c0.1,0,0.2,0,0.3,0c34.4,0.1,62.3,28.1,62.2,62.6V458.5z"/>
</svg>
