<?xml version="1.0" encoding="utf-8"?>
<!-- Generator: Adobe Illustrator 19.0.0, SVG Export Plug-In . SVG Version: 6.00 Build 0)  -->
<svg version="1.1" id="Layer_1" xmlns="http://www.w3.org/2000/svg" xmlns:xlink="http://www.w3.org/1999/xlink" x="0px" y="0px"
	 viewBox="1175 -1175 2500 2500" style="enable-background:new 1175 -1175 2500 2500;" xml:space="preserve">
<style type="text/css">
	.st0{fill:#00BBBB;}
</style>
<path class="st0" d="M2425,1325c690.4,0,1250-559.6,1250-1250s-559.6-1250-1250-1250S1175-615.4,1175,75S1734.6,1325,2425,1325z
	 M2425,1137.5c-586.8,0-1062.5-475.7-1062.5-1062.5S1838.2-987.5,2425-987.5S3487.5-511.8,3487.5,75S3011.8,1137.5,2425,1137.5z"/>
<path class="st0" d="M2425-925c-552.3,0-1000,447.7-1000,1000s447.7,1000,1000,1000S3425,627.3,3425,75S2977.3-925,2425-925z
	 M2487.5,137.5h-562.8c-33.7,0-62.2-28-62.2-62.5c0-0.1,0-0.2,0-0.3c0-34.4,27.9-62.2,62.3-62.2h437.7v-812.1
	c0-34.8,28-62.9,62.5-62.9c0.1,0,0.2,0,0.3,0c34.4,0.1,62.3,28.1,62.2,62.6V137.5z"/>
</svg>
