<?xml version="1.0" encoding="utf-8"?>
<!-- Generator: Adobe Illustrator 19.0.0, SVG Export Plug-In . SVG Version: 6.00 Build 0)  -->
<svg version="1.1" id="Layer_1" xmlns="http://www.w3.org/2000/svg" xmlns:xlink="http://www.w3.org/1999/xlink" x="0px" y="0px"
	 viewBox="-54 56 40 40" style="enable-background:new -54 56 40 40;" xml:space="preserve">
<style type="text/css">
	.st0{fill:#00BBBB;}
</style>
<path class="st0" d="M-25.4,70.1L-25.4,70.1C-25.4,70.1-25.4,70.1-25.4,70.1c-0.1,0-0.1-0.1-0.1-0.1l0.8-4.7l3.6,3.6l-3.8,1.6
	c0,0,0,0,0,0h0c0,0,0,0,0,0C-25.1,70.4-25.2,70.2-25.4,70.1z M-20.2,69.8l3.9,3.9c0.8,0.8,1.2,1.2,1.4,1.7c0,0.1,0,0.1,0.1,0.2
	l-9.3-3.9c0,0,0,0,0,0c0,0-0.1,0-0.1-0.1c0,0,0-0.1,0.1-0.1l0,0C-24.1,71.5-20.2,69.8-20.2,69.8z M-15,76.8
	c-0.2,0.4-0.6,0.8-1.2,1.4l-4.4,4.4l-5.7-1.2l0,0c0,0-0.1,0-0.1-0.1c0-0.5-0.3-0.9-0.7-1.2c0,0,0-0.1,0-0.1c0,0,0,0,0,0l1.1-6.5l0,0
	c0-0.1,0-0.1,0.1-0.1c0.5-0.1,0.9-0.3,1.2-0.7c0,0,0,0,0,0c0,0,0.1,0,0.1,0L-15,76.8L-15,76.8z M-21.7,83.7l-7.2,7.2l1.2-7.6l0,0
	c0,0,0,0,0,0c0,0,0,0,0.1,0l0,0c0.3-0.1,0.5-0.3,0.7-0.5c0,0,0.1-0.1,0.1-0.1c0,0,0,0,0,0L-21.7,83.7L-21.7,83.7z M-30.4,92.4
	l-0.8,0.8l-9-12.9c0,0,0,0,0,0c0,0,0,0,0-0.1c0,0,0,0,0,0l0,0c0,0,0-0.1,0.1-0.1l0,0l0,0c0,0,0,0,0.1-0.1c0,0,0,0,0.1,0l9.9,2
	c0,0,0.1,0,0.1,0c0,0,0,0,0,0c0.1,0.5,0.5,1,1,1.2c0,0,0,0,0,0.1c0,0,0,0,0,0C-29,84.1-30.1,90.6-30.4,92.4z M-32.1,94
	c-0.6,0.6-0.9,0.9-1.3,1c-0.4,0.1-0.8,0.1-1.2,0c-0.5-0.1-0.9-0.5-1.7-1.4l-9-9l2.3-3.6c0,0,0,0,0,0c0,0,0.1,0,0.1,0
	c0.5,0.2,1.1,0.1,1.6-0.1c0,0,0.1,0,0.1,0c0,0,0,0,0,0L-32.1,94L-32.1,94z M-46.1,83.9l-2.1-2.1l4.1-1.7c0,0,0,0,0,0
	c0,0,0.1,0,0.1,0.1c0,0.1,0.1,0.1,0.1,0.2l0,0c0,0,0,0,0,0L-46.1,83.9L-46.1,83.9z M-49.1,80.9l-2.6-2.6c-0.4-0.4-0.8-0.8-1-1
	l7.9,1.6c0,0,0,0,0,0c0,0,0.1,0,0.1,0.1c0,0.1-0.1,0.1-0.1,0.1l0,0C-44.8,79.1-49.1,80.9-49.1,80.9z M-53.2,75.9
	c0-0.2,0-0.3,0.1-0.5c0.1-0.5,0.5-0.9,1.4-1.7l3.3-3.3c1.5,2.2,3.1,4.5,4.6,6.7c0,0,0.1,0.1,0,0.1c-0.1,0.2-0.3,0.3-0.4,0.5
	c0,0,0,0-0.1,0.1c0,0,0,0,0,0h0L-53.2,75.9L-53.2,75.9z M-47.5,69.5L-43,65c0.4,0.2,2,0.8,3.3,1.4c1,0.4,2,0.8,2.3,1
	c0,0,0.1,0,0.1,0.1c0,0,0,0,0,0.1c-0.1,0.7,0.1,1.3,0.5,1.8c0,0,0,0.1,0,0.1l0,0l-4.6,7.1c0,0,0,0,0,0c0,0-0.1,0-0.1,0
	c-0.2,0-0.4-0.1-0.5-0.1c-0.2,0-0.3,0-0.5,0.1h0c0,0,0,0-0.1,0c0,0,0,0,0-0.1C-42.7,76.5-47.5,69.5-47.5,69.5z M-42.1,64.1l5.8-5.8
	c0.8-0.8,1.2-1.2,1.7-1.4c0.4-0.1,0.8-0.1,1.2,0c0.5,0.1,0.9,0.5,1.7,1.4l1.3,1.3l-4.1,6.4c0,0,0,0,0,0c0,0-0.1,0-0.1,0
	c-0.7-0.2-1.4-0.1-1.9,0.4c0,0-0.1,0-0.1,0C-37.3,66.1-41.5,64.3-42.1,64.1z M-29.6,60.4l3.8,3.8l-0.9,5.7v0c0,0,0,0,0,0
	c0,0,0,0,0,0c-0.2,0.1-0.4,0.2-0.5,0.3c0,0,0,0,0,0c0,0,0,0,0,0c0,0,0,0,0,0l-5.8-2.5l0,0c0,0-0.1,0-0.1-0.1c0-0.3-0.1-0.6-0.3-0.9
	c0,0-0.1-0.1,0-0.1C-33.7,66.7-29.6,60.4-29.6,60.4z M-33.5,69l5.5,2.3c0,0,0.1,0,0.1,0.1c0,0,0,0,0,0.1c0,0.1,0,0.2,0,0.3v0.2
	c0,0,0,0.1-0.1,0.1l0,0c-0.9,0.4-12.1,5.2-12.1,5.2c0,0,0,0-0.1,0c0,0,0-0.1,0-0.1c0,0,0,0,0,0l4.5-6.9l0,0c0,0,0.1-0.1,0.1-0.1l0,0
	c0.1,0,0.2,0,0.3,0c0.7,0,1.3-0.3,1.7-0.9C-33.6,69-33.6,69-33.5,69C-33.6,69-33.5,69-33.5,69z M-39.8,78.2l12.3-5.2c0,0,0,0,0,0
	c0.1,0.1,0.1,0.1,0.2,0.2l0,0c0,0,0,0,0.1,0.1c0,0,0,0,0,0l-1.1,6.5l0,0c0,0.1,0,0.1-0.1,0.1c-0.6,0-1.1,0.4-1.4,0.8l0,0
	c0,0,0,0,0,0.1c0,0,0,0-0.1,0l-9.8-2C-39.6,78.7-39.8,78.2-39.8,78.2z"/>
</svg>
