<?xml version="1.0" encoding="utf-8"?>
<!-- Generator: Adobe Illustrator 19.0.0, SVG Export Plug-In . SVG Version: 6.00 Build 0)  -->
<svg version="1.1" id="Layer_2_1_" xmlns="http://www.w3.org/2000/svg" xmlns:xlink="http://www.w3.org/1999/xlink" x="0px" y="0px"
	 viewBox="170 -143.9 490.6 436.9" style="enable-background:new 170 -143.9 490.6 436.9;" xml:space="preserve">
<style type="text/css">
	.st0{fill:#00BBBB;}
</style>
<g>
	<path class="st0" d="M660.6,74.6c0-32.5-40.7-63.3-103.1-82.4c14.4-63.6,8-114.2-20.2-130.4c-6.5-3.8-14.1-5.6-22.4-5.6v22.3
		c4.6,0,8.3,0.9,11.4,2.6c13.6,7.8,19.5,37.5,14.9,75.7c-1.1,9.4-2.9,19.3-5.1,29.4c-19.6-4.8-41-8.5-63.5-10.9
		c-13.5-18.5-27.5-35.3-41.6-50c32.6-30.3,63.2-46.9,84-46.9v-22.3l0,0c-27.5,0-63.5,19.6-99.9,53.6c-36.4-33.8-72.4-53.2-99.9-53.2
		v22.3c20.7,0,51.4,16.5,84,46.6c-14,14.7-28,31.4-41.3,49.9c-22.6,2.4-44,6.1-63.6,11c-2.3-10-4-19.7-5.2-29
		c-4.7-38.2,1.1-67.9,14.6-75.8c3-1.8,6.9-2.6,11.5-2.6v-22.3l0,0c-8.4,0-16,1.8-22.6,5.6c-28.1,16.2-34.4,66.7-19.9,130.1
		C210.5,11.5,170,42.2,170,74.6c0,32.5,40.7,63.3,103.1,82.4c-14.4,63.6-8,114.2,20.2,130.4c6.5,3.8,14.1,5.6,22.5,5.6
		c27.5,0,63.5-19.6,99.9-53.6c36.4,33.8,72.4,53.2,99.9,53.2c8.4,0,16-1.8,22.6-5.6c28.1-16.2,34.4-66.7,19.9-130.1
		C620.1,137.8,660.6,107,660.6,74.6z M530.4,7.9c-3.7,12.9-8.3,26.2-13.5,39.5c-4.1-8-8.4-16-13.1-24c-4.6-8-9.5-15.8-14.4-23.4
		C503.6,2.1,517.3,4.7,530.4,7.9z M484.6,114.4c-7.8,13.5-15.8,26.3-24.1,38.2c-14.9,1.3-30,2-45.2,2c-15.1,0-30.2-0.7-45-1.9
		c-8.3-11.9-16.4-24.6-24.2-38c-7.6-13.1-14.5-26.4-20.8-39.8c6.2-13.4,13.2-26.8,20.7-39.9c7.8-13.5,15.8-26.3,24.1-38.2
		c14.9-1.3,30-2,45.2-2c15.1,0,30.2,0.7,45,1.9c8.3,11.9,16.4,24.6,24.2,38c7.6,13.1,14.5,26.4,20.8,39.8
		C499,87.9,492.1,101.3,484.6,114.4z M516.9,101.4c5.4,13.4,10,26.8,13.8,39.8c-13.1,3.2-26.9,5.9-41.2,8
		c4.9-7.7,9.8-15.6,14.4-23.7C508.5,117.5,512.8,109.4,516.9,101.4z M415.5,208.1c-9.3-9.6-18.6-20.3-27.8-32
		c9,0.4,18.2,0.7,27.5,0.7c9.4,0,18.7-0.2,27.8-0.7C434,187.8,424.7,198.5,415.5,208.1z M341.1,149.2c-14.2-2.1-27.9-4.7-41-7.9
		c3.7-12.9,8.3-26.2,13.5-39.5c4.1,8,8.4,16,13.1,24S336.2,141.6,341.1,149.2z M415-58.9c9.3,9.6,18.6,20.3,27.8,32
		c-9-0.4-18.2-0.7-27.5-0.7c-9.4,0-18.7,0.2-27.8,0.7C396.5-38.6,405.8-49.3,415-58.9z M341,0c-4.9,7.7-9.8,15.6-14.4,23.7
		c-4.6,8-8.9,16-13,24c-5.4-13.4-10-26.8-13.8-39.8C312.9,4.8,326.7,2.1,341,0z M250.5,125.2c-35.4-15.1-58.3-34.9-58.3-50.6
		S215.1,39,250.5,24c8.6-3.7,18-7,27.7-10.1c5.7,19.6,13.2,40,22.5,60.9c-9.2,20.8-16.6,41.1-22.2,60.6
		C268.6,132.3,259.2,128.9,250.5,125.2z M304.3,268.1c-13.6-7.8-19.5-37.5-14.9-75.7c1.1-9.4,2.9-19.3,5.1-29.4
		c19.6,4.8,41,8.5,63.5,10.9c13.5,18.5,27.5,35.3,41.6,50c-32.6,30.3-63.2,46.9-84,46.9C311.1,270.7,307.3,269.8,304.3,268.1z
		 M541.5,191.9c4.7,38.2-1.1,67.9-14.6,75.8c-3,1.8-6.9,2.6-11.5,2.6c-20.7,0-51.4-16.5-84-46.6c14-14.7,28-31.4,41.3-49.9
		c22.6-2.4,44-6.1,63.6-11C538.6,172.9,540.4,182.6,541.5,191.9z M580,125.2c-8.6,3.7-18,7-27.7,10.1c-5.7-19.6-13.2-40-22.5-60.9
		c9.2-20.8,16.6-41.1,22.2-60.6c9.9,3.1,19.3,6.5,28.1,10.2c35.4,15.1,58.3,34.9,58.3,50.6C638.3,90.3,615.4,110.2,580,125.2z"/>
	<path class="st0" d="M315.1-143.5L315.1-143.5L315.1-143.5z"/>
	<circle class="st0" cx="415.2" cy="74.6" r="45.7"/>
	<path class="st0" d="M514.8-143.8L514.8-143.8L514.8-143.8z"/>
</g>
</svg>
